<?xml version="1.0" encoding="utf-8"?>
<!-- Svg Vector Icons : http://www.onlinewebfonts.com/icon -->
<!DOCTYPE svg PUBLIC "-//W3C//DTD SVG 1.1//EN" "http://www.w3.org/Graphics/SVG/1.1/DTD/svg11.dtd">
<svg version="1.1" xmlns="http://www.w3.org/2000/svg" xmlns:xlink="http://www.w3.org/1999/xlink" x="0px" y="0px" viewBox="0 0 1000 1000" enable-background="new 0 0 1000 1000" xml:space="preserve">
<metadata> Svg Vector Icons : http://www.onlinewebfonts.com/icon </metadata>
<g><g><g><path d="M675,578.1V449.5L401.7,722.8c28,19.1,61.9,30.3,98.3,30.3C596.5,753.1,675,674.6,675,578.1z"/><path d="M781.3,473.5h-34.8c-11.2,0-20.3,9.1-20.3,20.3V565c0,124.7-101.5,226.2-226.2,226.2c-47.2,0-91-14.5-127.3-39.4L319.5,805c40.9,31.3,89.8,52.5,142.8,59.2v50.5H306.7c-11.2,0-20.3,9.1-20.3,20.3v34.8c0,11.2,9.1,20.3,20.3,20.3h386.6c11.2,0,20.3-9.1,20.3-20.3v-34.8c0-11.2-9.1-20.3-20.3-20.3H537.7v-50.5c148-18.6,263.9-150,263.9-299.1v-71.3C801.6,482.5,792.5,473.5,781.3,473.5z"/><path d="M881.6,88c-21.8-21.8-57.1-21.8-78.8,0L675,215.7V185c0-96.5-78.5-175-175-175c-96.5,0-175,78.5-175,175v380.7l-46.1,46.1c-3.2-15.1-5-30.8-5-46.9v-71.3c0-11.2-9.1-20.3-20.3-20.3h-34.8c-11.2,0-20.3,9.1-20.3,20.3V565c0,37.2,7.4,73.3,20.5,106.8L118.4,772.3c-21.8,21.8-21.8,57.1,0,78.9c10.9,10.9,25.2,16.3,39.4,16.3c14.3,0,28.5-5.4,39.4-16.3l684.3-684.3C903.4,145.1,903.4,109.8,881.6,88z"/></g></g><g></g><g></g><g></g><g></g><g></g><g></g><g></g><g></g><g></g><g></g><g></g><g></g><g></g><g></g><g></g></g>
</svg>