<?xml version="1.0" encoding="utf-8"?>
<!-- Svg Vector Icons : http://www.onlinewebfonts.com/icon -->
<!DOCTYPE svg PUBLIC "-//W3C//DTD SVG 1.1//EN" "http://www.w3.org/Graphics/SVG/1.1/DTD/svg11.dtd">
<svg version="1.1" xmlns="http://www.w3.org/2000/svg" xmlns:xlink="http://www.w3.org/1999/xlink" x="0px" y="0px" viewBox="0 0 1000 1000" enable-background="new 0 0 1000 1000" xml:space="preserve">
<metadata> Svg Vector Icons : http://www.onlinewebfonts.com/icon </metadata>
<g><path d="M772.6,982.8C602.2,917.8,430,843.4,291.7,705.6C153.5,567.8,56.3,403.1,13.7,226.2C9,206.8,3.6,178.2,33,148.9c30.6-30.6,91.9-91.7,122.6-122.2c22.5-22.5,60-23.3,81.7,0C279.9,72.6,358,170.9,400.7,216.8c21.7,23.3,25.7,62.6,0,81.5c-21.7,15.9-55.6,29-88.5,61.1c-20.2,19.7-32.9,54.2-30.1,84.3c0.2,2.2,0.5,6.6,0.8,8.7c2.8,20.8,19,44.2,29.3,56.3c40.5,47.6,128.8,136.8,177.1,176.5c12.3,10.1,35.7,26.4,56.5,29.2c2.2,0.3,6.5,0.6,8.7,0.9c30.3,2.8,58.5-7,84.6-30c14.8-13.1,44.6-67.2,61.3-88.3c19.8-25,58.3-21.6,81.7,0c46.1,42.5,144.3,120.7,190.7,163c23.6,21.5,22.6,59,0,81.5C942,872,880.8,933.1,850.1,963.7C811.3,1002.4,791.2,990,772.6,982.8z"/></g>
</svg>